<svg xmlns="http://www.w3.org/2000/svg" viewBox="0 0 15 15">
	<defs>
		<style>.cls-3{fill:#68dc8e;}</style>
	</defs>
	<path class="cls-3" d="M11.5,15h-8A3.5,3.5,0,0,1,0,11.5v-8A3.5,3.5,0,0,1,3.5,0h8A3.5,3.5,0,0,1,15,3.5v8A3.5,3.5,0,0,1,11.5,15ZM3.5,1A2.5,2.5,0,0,0,1,3.5v8A2.5,2.5,0,0,0,3.5,14h8A2.5,2.5,0,0,0,14,11.5v-8A2.5,2.5,0,0,0,11.5,1Z"/>
	<path class="cls-3" d="M10.5,11.57a.6.6,0,0,1-.57-.38L9.4,9.83H5.57l-.52,1.36a.62.62,0,0,1-.58.38.63.63,0,0,1-.63-.63.91.91,0,0,1,0-.23L6.52,4.06a1,1,0,0,1,1.92,0l2.65,6.65a.48.48,0,0,1,.05.23A.64.64,0,0,1,10.5,11.57ZM5.91,8.79H9.06L7.48,4.71Z"/>
</svg>