<?xml version="1.0" encoding="UTF-8"?>
<svg width="15px" height="15px" viewBox="0 0 15 15" version="1.1" xmlns="http://www.w3.org/2000/svg" xmlns:xlink="http://www.w3.org/1999/xlink">
    <title>Group 4</title>
    <defs>
        <path d="M12,0 C13.6568542,-3.04359188e-16 15,1.34314575 15,3 L15,12 C15,13.6568542 13.6568542,15 12,15 L3,15 C1.34314575,15 2.02906125e-16,13.6568542 0,12 L0,3 C-2.02906125e-16,1.34314575 1.34314575,3.04359188e-16 3,0 L12,0 Z M12,1 L3,1 C1.8954305,1 1,1.8954305 1,3 L1,3 L1,12 C1,13.1045695 1.8954305,14 3,14 L3,14 L12,14 C13.1045695,14 14,13.1045695 14,12 L14,12 L14,3 C14,1.8954305 13.1045695,1 12,1 L12,1 Z" id="path-1"></path>
    </defs>
    <g id="D-Planned-Failover-VD-Final-14th-May" stroke="none" stroke-width="1" fill="none" fill-rule="evenodd">
        <g id="D14" transform="translate(-392.000000, -403.000000)">
            <g id="Group-9" transform="translate(392.000000, 399.000000)">
                <g id="Group-12" transform="translate(0.000000, 4.000000)">
                    <g id="Group-4">
                        <g id="Tag">
                            <g id="Outline">
                                <mask id="mask-2" fill="white">
                                    <use xlink:href="#path-1"></use>
                                </mask>
                                <g id="Tag---Outline"></g>
                                <g id="Color-/-Light-Green-1" mask="url(#mask-2)" fill="#C3F1D2">
                                    <rect id="Color" x="0" y="0" width="15" height="15"></rect>
                                </g>
                            </g>
                        </g>
                        <g id="Data" transform="translate(3.500000, 3.500000)" fill="#31BB67" font-family="NutanixSoft-Medium, Nutanix Soft" font-size="12" font-weight="400" line-spacing="8">
                            <text>
                                <tspan x="0" y="12">A</tspan>
                            </text>
                        </g>
                    </g>
                </g>
            </g>
        </g>
    </g>
</svg>