<?xml version="1.0" encoding="UTF-8"?>
<svg width="2px" height="10px" viewBox="0 0 2 10" version="1.1" xmlns="http://www.w3.org/2000/svg" xmlns:xlink="http://www.w3.org/1999/xlink">
    <title>Icon - Triple Dots Vertical</title>
    <defs>
        <path d="M1,8 C1.55228475,8 2,8.44771525 2,9 C2,9.55228475 1.55228475,10 1,10 C0.44771525,10 6.76353751e-17,9.55228475 0,9 C-6.76353751e-17,8.44771525 0.44771525,8 1,8 Z M1,4 C1.55228475,4 2,4.44771525 2,5 C2,5.55228475 1.55228475,6 1,6 C0.44771525,6 6.76353751e-17,5.55228475 0,5 C-6.76353751e-17,4.44771525 0.44771525,4 1,4 Z M1,0 C1.55228475,-1.01453063e-16 2,0.44771525 2,1 C2,1.55228475 1.55228475,2 1,2 C0.44771525,2 6.76353751e-17,1.55228475 0,1 C-6.76353751e-17,0.44771525 0.44771525,1.01453063e-16 1,0 Z" id="path-1"></path>
    </defs>
    <g id="E-Unplanned-Failover-VD-Final-14th-May" stroke="none" stroke-width="1" fill="none" fill-rule="evenodd">
        <g id="E08.01" transform="translate(-1248.000000, -167.000000)">
            <g id="Special-/-Triple-Dots-Vertical" transform="translate(1248.000000, 167.000000)">
                <mask id="mask-2" fill="white">
                    <use xlink:href="#path-1"></use>
                </mask>
                <g id="Mask"></g>
                <g id="Icon-/-Dark-Bg-/-Secondary" mask="url(#mask-2)" fill="#7C8D9F" fill-rule="evenodd">
                    <g id="Color-/-Grey-2">
                        <polygon id="Color" points="0 0 2 0 2 10 0 10"></polygon>
                    </g>
                </g>
            </g>
        </g>
    </g>
</svg>