<?xml version="1.0" encoding="UTF-8"?>
<svg width="15px" height="15px" viewBox="0 0 15 15" version="1.1" xmlns="http://www.w3.org/2000/svg" xmlns:xlink="http://www.w3.org/1999/xlink">
    <title>Group 15</title>
    <g id="D-Planned-Failover-VD-Final-14th-May" stroke="none" stroke-width="1" fill="none" fill-rule="evenodd">
        <g id="D14" transform="translate(-788.000000, -403.000000)">
            <g id="Group-9" transform="translate(392.000000, 399.000000)">
                <g id="Group-15" transform="translate(396.003906, 4.000000)">
                    <circle id="Oval" fill="#59BCF9" cx="7.5" cy="7.5" r="7.5"></circle>
                    <path d="M3.5,7.49332889 C3.5,7.05150107 3.85817221,6.69332886 4.30000003,6.69332886 C4.74182785,6.69332886 5.10000006,7.05150107 5.10000006,7.49332889 C5.10000006,7.49571655 5.0999896,7.49810177 5.09996873,7.50048451 C5.1,8.8254834 6.1745166,9.9 7.5,9.9 C8.8254834,9.9 9.9,8.8254834 9.9,7.5 C9.9,6.1745166 8.8254834,5.1 7.5,5.1 C6.66732453,5.1 5.93369102,5.52404904 5.50327059,6.167976 L4.17113273,5.28143418 C4.88836555,4.20739564 6.11157222,3.5 7.5,3.5 C9.709139,3.5 11.5,5.290861 11.5,7.5 C11.5,9.709139 9.709139,11.5 7.5,11.5 C5.290861,11.5 3.5,9.709139 3.5,7.5 L3.5,7.5 Z" id="Combined-Shape" fill=""></path>
                </g>
            </g>
        </g>
    </g>
</svg>