<svg xmlns="http://www.w3.org/2000/svg" viewBox="0 0 139.58 15"><defs><style>.cls-1{fill:#d5dae0;}.cls-2{fill:#b8bfca;}.cls-3{fill:#68dc8e;}.cls-4{isolation:isolate;}</style></defs><g id="Layer_2" data-name="Layer 2"><g id="Layer_1-2" data-name="Layer 1"><g id="Path-18"><path class="cls-1" d="M124.53,8h-1a.5.5,0,0,1,0-1h1a.5.5,0,0,1,0,1Zm-3,0h-1a.5.5,0,0,1,0-1h1a.5.5,0,0,1,0,1Zm-3,0h-1a.5.5,0,0,1,0-1h1a.5.5,0,0,1,0,1Zm-3,0h-1a.5.5,0,0,1,0-1h1a.5.5,0,0,1,0,1Zm-3,0h-1a.5.5,0,0,1,0-1h1a.5.5,0,0,1,0,1Zm-3,0h-1a.5.5,0,0,1,0-1h1a.5.5,0,0,1,0,1Zm-3,0h-1a.5.5,0,0,1,0-1h1a.5.5,0,0,1,0,1Zm-3,0h-1a.5.5,0,0,1,0-1h1a.5.5,0,0,1,0,1Zm-3,0h-1a.5.5,0,0,1,0-1h1a.5.5,0,0,1,0,1Zm-3,0h-1a.5.5,0,0,1,0-1h1a.5.5,0,0,1,0,1Zm-3,0h-1a.5.5,0,0,1,0-1h1a.5.5,0,0,1,0,1Zm-3,0h-1a.5.5,0,0,1,0-1h1a.5.5,0,0,1,0,1Zm-3,0h-1a.5.5,0,0,1,0-1h1a.5.5,0,0,1,0,1Zm-3,0h-1a.5.5,0,0,1,0-1h1a.5.5,0,0,1,0,1Zm-3,0h-1a.5.5,0,0,1,0-1h1a.5.5,0,0,1,0,1Zm-3,0h-1a.5.5,0,0,1,0-1h1a.5.5,0,0,1,0,1Zm-3,0h-1a.5.5,0,0,1,0-1h1a.5.5,0,0,1,0,1Zm-3,0h-1a.5.5,0,0,1,0-1h1a.5.5,0,0,1,0,1Zm-3,0h-1a.5.5,0,0,1,0-1h1a.5.5,0,0,1,0,1Zm-3,0h-1a.5.5,0,0,1,0-1h1a.5.5,0,0,1,0,1Zm-3,0h-1a.5.5,0,0,1,0-1h1a.5.5,0,0,1,0,1Zm-3,0h-1a.5.5,0,0,1,0-1h1a.5.5,0,0,1,0,1Zm-3,0h-1a.5.5,0,0,1,0-1h1a.5.5,0,0,1,0,1Zm-3,0h-1a.5.5,0,0,1,0-1h1a.5.5,0,0,1,0,1Zm-3,0h-1a.5.5,0,0,1,0-1h1a.5.5,0,0,1,0,1Zm-3,0h-1a.5.5,0,0,1,0-1h1a.5.5,0,0,1,0,1Zm-3,0h-1a.5.5,0,0,1,0-1h1a.5.5,0,0,1,0,1Zm-3,0h-1a.5.5,0,0,1,0-1h1a.5.5,0,0,1,0,1Zm-3,0h-1a.5.5,0,0,1,0-1h1a.5.5,0,0,1,0,1Zm-3,0h-1a.5.5,0,0,1,0-1h1a.5.5,0,0,1,0,1Zm-3,0h-1a.5.5,0,0,1,0-1h1a.5.5,0,0,1,0,1Zm-3,0h-1a.5.5,0,0,1,0-1h1a.5.5,0,0,1,0,1Zm-3,0h-1a.5.5,0,0,1,0-1h1a.5.5,0,0,1,0,1Zm-3,0h-1a.5.5,0,0,1,0-1h1a.5.5,0,0,1,0,1Zm-3,0h-1a.5.5,0,0,1,0-1h1a.5.5,0,0,1,0,1Zm-3,0h-1a.5.5,0,0,1,0-1h1a.5.5,0,0,1,0,1Zm-3,0h-1a.5.5,0,0,1,0-1h1a.5.5,0,0,1,0,1Z"/></g><g id="Rectangle"><path class="cls-1" d="M11.5,15h-8A3.5,3.5,0,0,1,0,11.5v-8A3.5,3.5,0,0,1,3.5,0h8A3.5,3.5,0,0,1,15,3.5v8A3.5,3.5,0,0,1,11.5,15ZM3.5,1A2.5,2.5,0,0,0,1,3.5v8A2.5,2.5,0,0,0,3.5,14h8A2.5,2.5,0,0,0,14,11.5v-8A2.5,2.5,0,0,0,11.5,1Z"/></g><path class="cls-2" d="M6,5.56c0-.68.61-1.15,1.51-1.15a3.36,3.36,0,0,1,2,.64.54.54,0,0,0,.32.11.58.58,0,0,0,.57-.56.5.5,0,0,0-.16-.37,4,4,0,0,0-2.62-.86c-1.65,0-2.83,1-2.83,2.28,0,2.89,4.71,1.8,4.71,3.69,0,.56-.46,1.25-1.76,1.25a3.36,3.36,0,0,1-2.17-.82.55.55,0,0,0-.88.48.52.52,0,0,0,.14.37,4.12,4.12,0,0,0,2.87,1c2.16,0,3-1.16,3-2.41C10.74,6.23,6,7.22,6,5.56Z"/><g id="Rectangle-Copy"><path class="cls-3" d="M136.08,15h-8a3.5,3.5,0,0,1-3.5-3.5v-8a3.5,3.5,0,0,1,3.5-3.5h8a3.5,3.5,0,0,1,3.5,3.5v8A3.5,3.5,0,0,1,136.08,15Zm-8-14a2.5,2.5,0,0,0-2.5,2.5v8a2.5,2.5,0,0,0,2.5,2.5h8a2.5,2.5,0,0,0,2.5-2.5v-8a2.5,2.5,0,0,0-2.5-2.5Z"/></g><g id="Data-Copy" class="cls-4"><g class="cls-4"><path class="cls-3" d="M135.08,11.57a.6.6,0,0,1-.57-.38L134,9.83h-3.83l-.52,1.36a.62.62,0,0,1-.58.38.63.63,0,0,1-.63-.63.91.91,0,0,1,0-.23l2.65-6.65a1,1,0,0,1,1.92,0l2.65,6.65a.48.48,0,0,1,.05.23A.64.64,0,0,1,135.08,11.57Zm-4.59-2.78h3.15l-1.58-4.08Z"/></g></g><path class="cls-3" d="M71.31,7.11l-5-4a.51.51,0,0,0-.53-.06.5.5,0,0,0-.28.45v8a.5.5,0,0,0,.28.45A.54.54,0,0,0,66,12a.51.51,0,0,0,.31-.11l5-4a.5.5,0,0,0,0-.78Z"/></g></g></svg>