<svg xmlns="http://www.w3.org/2000/svg" viewBox="0 0 139.57 15">
	<defs>
		<style>.cls-1{fill:#d5dae0;}.cls-2{fill:#b8bfca;}.cls-3{fill:#68dc8e;}.cls-4{isolation:isolate;}</style>
	</defs>
	<g id="Layer_2" data-name="Layer 2">
		<g id="Layer_1-2" data-name="Layer 1">
			<g id="Path-18">
				<path class="cls-1" d="M124.51,8h-1a.5.5,0,1,1,0-1h1a.5.5,0,0,1,0,1Zm-3,0h-1a.5.5,0,1,1,0-1h1a.5.5,0,0,1,0,1Zm-3,0h-1a.5.5,0,0,1,0-1h1a.5.5,0,0,1,0,1Zm-3,0h-1a.5.5,0,0,1,0-1h1a.5.5,0,0,1,0,1Zm-3,0h-1a.5.5,0,0,1,0-1h1a.5.5,0,0,1,0,1Zm-3,0h-1a.5.5,0,0,1,0-1h1a.5.5,0,0,1,0,1Zm-3,0h-1a.5.5,0,0,1,0-1h1a.5.5,0,0,1,0,1Zm-3,0h-1a.5.5,0,0,1,0-1h1a.5.5,0,0,1,0,1Zm-3,0h-1a.5.5,0,0,1,0-1h1a.5.5,0,0,1,0,1Zm-3,0h-1a.5.5,0,0,1,0-1h1a.5.5,0,0,1,0,1Zm-3,0h-1a.5.5,0,0,1,0-1h1a.5.5,0,0,1,0,1Zm-3,0h-1a.5.5,0,0,1,0-1h1a.5.5,0,0,1,0,1Zm-3,0h-1a.5.5,0,0,1,0-1h1a.5.5,0,0,1,0,1Zm-3,0h-1a.5.5,0,0,1,0-1h1a.5.5,0,0,1,0,1Zm-3,0h-1a.5.5,0,0,1,0-1h1a.5.5,0,0,1,0,1Zm-3,0h-1a.5.5,0,0,1,0-1h1a.5.5,0,0,1,0,1Zm-3,0h-1a.5.5,0,0,1,0-1h1a.5.5,0,0,1,0,1Zm-3,0h-1a.5.5,0,0,1,0-1h1a.5.5,0,0,1,0,1Zm-3,0h-1a.5.5,0,0,1,0-1h1a.5.5,0,0,1,0,1Zm-3,0h-1a.5.5,0,0,1,0-1h1a.5.5,0,0,1,0,1Zm-3,0h-1a.5.5,0,1,1,0-1h1a.5.5,0,0,1,0,1Zm-3,0h-1a.5.5,0,1,1,0-1h1a.5.5,0,0,1,0,1Zm-3,0h-1a.5.5,0,1,1,0-1h1a.5.5,0,0,1,0,1Zm-3,0h-1a.5.5,0,0,1,0-1h1a.5.5,0,0,1,0,1Zm-3,0h-1a.5.5,0,0,1,0-1h1a.5.5,0,0,1,0,1Zm-3,0h-1a.5.5,0,0,1,0-1h1a.5.5,0,0,1,0,1Zm-3,0h-1a.5.5,0,0,1,0-1h1a.5.5,0,0,1,0,1Zm-3,0h-1a.5.5,0,0,1,0-1h1a.5.5,0,0,1,0,1Zm-3,0h-1a.5.5,0,0,1,0-1h1a.5.5,0,0,1,0,1Zm-3,0h-1a.5.5,0,0,1,0-1h1a.5.5,0,0,1,0,1Zm-3,0h-1a.5.5,0,0,1,0-1h1a.5.5,0,0,1,0,1Zm-3,0h-1a.5.5,0,0,1,0-1h1a.5.5,0,0,1,0,1Zm-3,0h-1a.5.5,0,0,1,0-1h1a.5.5,0,1,1,0,1Zm-3,0h-1a.5.5,0,0,1,0-1h1a.5.5,0,1,1,0,1Zm-3,0h-1a.5.5,0,0,1,0-1h1a.5.5,0,0,1,0,1Zm-3,0h-1a.5.5,0,0,1,0-1h1a.5.5,0,0,1,0,1Zm-3,0h-1a.5.5,0,1,1,0-1h1a.5.5,0,0,1,0,1Z"/>
			</g>
			<g id="Rectangle">
				<path class="cls-1" d="M136.07,15h-8a3.5,3.5,0,0,1-3.5-3.5v-8a3.5,3.5,0,0,1,3.5-3.5h8a3.5,3.5,0,0,1,3.5,3.5v8A3.5,3.5,0,0,1,136.07,15Zm-8-14a2.5,2.5,0,0,0-2.5,2.5v8a2.5,2.5,0,0,0,2.5,2.5h8a2.5,2.5,0,0,0,2.5-2.5v-8a2.5,2.5,0,0,0-2.5-2.5Z"/>
			</g>
			<path class="cls-2" d="M130.6,5.56c0-.68.62-1.15,1.52-1.15a3.31,3.31,0,0,1,2,.64.59.59,0,0,0,.33.11A.57.57,0,0,0,135,4.6a.53.53,0,0,0-.15-.37,4,4,0,0,0-2.62-.86c-1.65,0-2.83,1-2.83,2.28,0,2.89,4.7,1.8,4.7,3.69,0,.56-.45,1.25-1.75,1.25a3.34,3.34,0,0,1-2.17-.82.62.62,0,0,0-.33-.11.58.58,0,0,0-.56.59.53.53,0,0,0,.15.37,4.12,4.12,0,0,0,2.86,1c2.16,0,3-1.16,3-2.41C135.31,6.23,130.6,7.22,130.6,5.56Z"/>
			<g id="Rectangle-Copy">
				<path class="cls-3" d="M11.5,15h-8A3.5,3.5,0,0,1,0,11.5v-8A3.5,3.5,0,0,1,3.5,0h8A3.5,3.5,0,0,1,15,3.5v8A3.5,3.5,0,0,1,11.5,15ZM3.5,1A2.5,2.5,0,0,0,1,3.5v8A2.5,2.5,0,0,0,3.5,14h8A2.5,2.5,0,0,0,14,11.5v-8A2.5,2.5,0,0,0,11.5,1Z"/>
			</g>
			<g id="Data-Copy" class="cls-4">
				<g class="cls-4">
					<path class="cls-3" d="M10.5,11.57a.6.6,0,0,1-.57-.38L9.4,9.83H5.57l-.52,1.36a.62.62,0,0,1-.58.38.63.63,0,0,1-.63-.63.91.91,0,0,1,0-.23L6.52,4.06a1,1,0,0,1,1.92,0l2.65,6.65a.48.48,0,0,1,.05.23A.64.64,0,0,1,10.5,11.57ZM5.91,8.79H9.06L7.48,4.71Z"/>
				</g>
			</g>
			<path class="cls-3" d="M71.3,7.11l-5-4a.51.51,0,0,0-.53-.06.5.5,0,0,0-.28.45v8a.5.5,0,0,0,.28.45A.54.54,0,0,0,66,12a.51.51,0,0,0,.31-.11l5-4a.5.5,0,0,0,0-.78Z"/>
		</g>
	</g>
</svg>