<svg xmlns="http://www.w3.org/2000/svg" viewBox="0 0 15 15">
	<defs>
		<style>.cls-1{fill:#d5dae0;}</style>
	</defs>
	<path class="cls-1" d="M11.5,15h-8A3.5,3.5,0,0,1,0,11.5v-8A3.5,3.5,0,0,1,3.5,0h8A3.5,3.5,0,0,1,15,3.5v8A3.5,3.5,0,0,1,11.5,15ZM3.5,1A2.5,2.5,0,0,0,1,3.5v8A2.5,2.5,0,0,0,3.5,14h8A2.5,2.5,0,0,0,14,11.5v-8A2.5,2.5,0,0,0,11.5,1Z"/>
	<path class="cls-1" d="
		M 5.8,5.8
		c 0 -0.68 0.62 -1.15 1.52 -1.15
		a 3.31 3.31 0 0 1 2 0.64
		a 0.59 0.59 0 0 0 0.33 0.11
		a 0.57 0.57 0 0 0 0.55 -0.56
		a 0.53 0.53 0 0 0 -0.15 -0.37
		a 4 4 0 0 0 -2.62 -0.86
		c -1.65 0 -2.83 1 -2.83 2.28
		c 0 2.89 4.7 1.8 4.7 3.69
		c 0 0.56 -0.45 1.25 -1.75 1.25
		a 3.34 3.34 0 0 1 -2.17 -0.82
		a 0.62 0.62 0 0 0 -0.33 -0.11
		a 0.58 0.58 0 0 0 -0.56 0.59
		a 0.53 0.53 0 0 0 0.15 0.37
		a 4.12 4.12 0 0 0 2.86 1
		c 2.16 0 3 -1.16 3 -2.41
		c 0.01 -2.98 -4.7 -1.99 -4.7 -3.65
		z
	" />
</svg>