<?xml version="1.0" encoding="UTF-8"?>
<svg width="12px" height="13px" viewBox="0 0 12 13" version="1.1" xmlns="http://www.w3.org/2000/svg" xmlns:xlink="http://www.w3.org/1999/xlink">
    <title>Combined Shape</title>
    <g id="D-Planned-Failover-VD-Final-14th-May" stroke="none" stroke-width="1" fill="none" fill-rule="evenodd">
        <g id="D16" transform="translate(-1065.000000, -167.000000)" fill="">
            <path d="M1071,167.5 C1074.31371,167.5 1077,170.186292 1077,173.5 C1077,176.813708 1074.31371,179.5 1071,179.5 C1067.68629,179.5 1065,176.813708 1065,173.5 L1065,173.5 L1065.001,173.5 L1065,173.489993 C1065,172.868673 1065.4722,172.357641 1066.07731,172.296189 L1066.2,172.289993 C1066.86274,172.289993 1067.4,172.827252 1067.4,173.489993 L1067.4,173.489993 L1067.399,173.5 L1067.40499,173.691192 C1067.50438,175.590533 1069.07591,177.1 1071,177.1 C1072.98823,177.1 1074.6,175.488225 1074.6,173.5 C1074.6,171.511775 1072.98823,169.9 1071,169.9 C1069.75042,169.9 1068.64953,170.536653 1068.00402,171.503283 L1066.0072,170.171408 C1067.08311,168.560767 1068.91768,167.5 1071,167.5 Z" id="Combined-Shape"></path>
        </g>
    </g>
</svg>