<?xml version="1.0" encoding="UTF-8"?>
<svg width="13px" height="13px" viewBox="0 0 13 13" version="1.1" xmlns="http://www.w3.org/2000/svg" xmlns:xlink="http://www.w3.org/1999/xlink">
    <title>Error</title>
    <g id="E-Unplanned-Failover-VD-Final-14th-May" stroke="none" stroke-width="1" fill="none" fill-rule="evenodd">
        <g id="E08.01" transform="translate(-1060.000000, -167.000000)" fill="#F55656">
            <g id="Group-2-Copy-4" transform="translate(1044.000000, 113.000000)">
                <g id="Group-14" transform="translate(16.000000, 54.000000)">
                    <g id="Glyph---Error" transform="translate(0.616821, 0.500000)">
                        <path d="M9.00284797,0 C10.6581293,0 12,1.34162278 12,2.99715203 L12,9.00284797 C12,10.6581293 10.6583772,12 9.00284797,12 L2.99715203,12 C1.34187067,12 0,10.6583772 0,9.00284797 L0,2.99715203 C0,1.34187067 1.34162278,0 2.99715203,0 L9.00284797,0 Z M6.14285827,7.94546989 C5.60694564,7.94546989 5.21105974,8.38171387 5.21105974,8.96163367 L5.21105974,8.98383623 C5.21105974,9.56245091 5.60821802,10 6.14285827,10 C6.6787709,10 7.0746568,9.56375602 7.0746568,8.98383623 L7.0746568,8.96163367 C7.0746568,8.38171387 6.6787709,7.94546989 6.14285827,7.94546989 Z M6.14285903,2 L6.02586676,2.00682297 C5.41091983,2.07899174 4.94752671,2.71388218 5.00478612,3.44338137 L5.00478612,3.44338137 L5.23308718,6.35197936 C5.27586053,6.89695806 5.67037881,7.31423491 6.14285903,7.31423491 L6.14285903,7.31423491 L6.25038356,7.30695943 C6.67394926,7.24928284 7.01314428,6.85503662 7.05263089,6.35197936 L7.05263089,6.35197936 L7.28092814,3.44338137 C7.34176626,2.66828849 6.8148403,2 6.14285903,2 L6.14285903,2 Z" id="Error"></path>
                    </g>
                </g>
            </g>
        </g>
    </g>
</svg>